<svg height='100px' width='100px'  fill="#000000" xmlns="http://www.w3.org/2000/svg" xmlns:xlink="http://www.w3.org/1999/xlink" version="1.1" x="0px" y="0px" viewBox="0 0 32 32" enable-background="new 0 0 32 32" xml:space="preserve"><path d="M6.415,4.441V1.089c0.032-1.452-2.162-1.452-2.129,0v3.35C2.459,4.917,1.094,6.577,1.094,8.548  c0,1.972,1.365,3.631,3.192,4.109v18.244c-0.002,0.037-0.002,0.074,0,0.11c0.103,1.388,2.171,1.281,2.129-0.11V12.655  c1.825-0.48,3.192-2.138,3.192-4.107C9.607,6.58,8.24,4.922,6.415,4.441z M5.346,10.678c-1.188,0-2.129-0.94-2.129-2.129  c0-1.188,0.941-2.129,2.129-2.129S7.476,7.36,7.476,8.548C7.476,9.737,6.535,10.678,5.346,10.678z M17.065,17.214V1.089  c0.032-1.451-2.162-1.451-2.13,0v16.123c-1.829,0.478-3.198,2.138-3.198,4.109s1.37,3.629,3.198,4.107v5.474  c-0.002,0.037-0.002,0.074,0,0.11c0.102,1.388,2.171,1.281,2.13-0.11v-5.476c1.825-0.48,3.192-2.136,3.192-4.105  S18.89,17.695,17.065,17.214z M15.996,23.451c-1.188,0-2.129-0.94-2.129-2.129c0-1.188,0.941-2.13,2.129-2.13  s2.132,0.941,2.132,2.13C18.127,22.51,17.184,23.451,15.996,23.451z M27.708,6.571V1.089c0.032-1.452-2.162-1.452-2.129,0v5.484  c-1.825,0.481-3.192,2.137-3.192,4.105c0,1.969,1.368,3.62,3.192,4.099v16.125c-0.032,1.451,2.162,1.451,2.129,0V14.779  c1.829-0.476,3.198-2.129,3.198-4.101C30.906,8.707,29.537,7.048,27.708,6.571z M26.647,12.81c-1.188,0-2.132-0.943-2.132-2.132  c0-1.188,0.943-2.129,2.132-2.129s2.129,0.941,2.129,2.129C28.777,11.867,27.836,12.81,26.647,12.81z"></path></svg>