<svg height='100px' width='100px'  fill="#000000" xmlns="http://www.w3.org/2000/svg" xmlns:xlink="http://www.w3.org/1999/xlink" version="1.1" x="0px" y="0px" viewBox="0 0 100 100" enable-background="new 0 0 100 100" xml:space="preserve"><g><path d="M73.089,31.089C83.517,31.089,92,39.572,92,50c0,10.428-8.483,18.911-18.911,18.911c-5.992,0-11.692-2.889-15.248-7.729   c-0.565-0.769-1.463-1.224-2.418-1.224H44.577c-0.955,0-1.852,0.454-2.418,1.224c-3.556,4.84-9.256,7.729-15.248,7.729   C16.483,68.911,8,60.428,8,50c0-10.428,8.483-18.911,18.911-18.911H73.089 M73.089,28.089H26.911C14.81,28.089,5,37.899,5,50   c0,12.101,9.81,21.911,21.911,21.911c7.252,0,13.678-3.525,17.666-8.953h10.846c3.988,5.428,10.414,8.953,17.666,8.953   C85.19,71.911,95,62.101,95,50C95,37.899,85.19,28.089,73.089,28.089L73.089,28.089z"></path><circle cx="78.803" cy="55.714" r="4.232"></circle><circle cx="67.375" cy="44.286" r="4.232"></circle><path d="M35.639,46.416h-5.145v-5.144c0-1.979-1.605-3.584-3.584-3.584h0c-1.979,0-3.584,1.605-3.584,3.584v5.144h-5.144   c-1.979,0-3.584,1.605-3.584,3.584v0c0,1.979,1.605,3.584,3.584,3.584h5.144v5.145c0,1.979,1.605,3.584,3.584,3.584h0   c1.979,0,3.584-1.605,3.584-3.584v-5.145h5.145c1.979,0,3.584-1.605,3.584-3.584v0C39.224,48.021,37.619,46.416,35.639,46.416z"></path></g></svg>